<svg width="20" height="20" viewBox="0 0 20 20" fill="none" xmlns="http://www.w3.org/2000/svg">
<path d="M13 18L7 15.8796L3.042 17.4245C2.786 17.5207 2.54833 17.4928 2.329 17.3407C2.10967 17.1885 2 16.9748 2 16.6995V4.34961C2 4.16988 2.04333 4.0053 2.13 3.85586C2.21667 3.70642 2.34267 3.6031 2.508 3.54588L7 2L13 4.12041L16.958 2.57554C17.214 2.47928 17.4517 2.49745 17.671 2.63006C17.8903 2.76267 18 2.96024 18 3.22277V15.7281C18 15.9213 17.947 16.0889 17.841 16.231C17.7357 16.3737 17.5937 16.474 17.415 16.5319L13 18ZM12.5 16.7681V4.95444L7.5 3.19248V15.0062L12.5 16.7681ZM13.5 16.7681L17 15.6039V3.63877L13.5 4.95545V16.7681ZM3 16.3612L6.5 15.0062V3.19248L3 4.39606V16.3612Z" fill="#787878"/>
</svg>
